<?xml version="1.0" encoding="utf-8"?>
<!-- Generator: Adobe Illustrator 17.1.0, SVG Export Plug-In . SVG Version: 6.00 Build 0)  -->
<!DOCTYPE svg PUBLIC "-//W3C//DTD SVG 1.1//EN" "http://www.w3.org/Graphics/SVG/1.1/DTD/svg11.dtd">
<svg version="1.1" id="Layer_1" xmlns="http://www.w3.org/2000/svg" xmlns:xlink="http://www.w3.org/1999/xlink" x="0px" y="0px"
	 viewBox="0 0 256 768" enable-background="new 0 0 256 768" xml:space="preserve" width="32" height="96">
<g id="status">
	<g>
		<path fill="#7AB60A" d="M128,32c52.9,0,96,43.1,96,96s-43.1,96-96,96s-96-43.1-96-96S75.1,32,128,32 M128,0C57.3,0,0,57.3,0,128
			c0,70.7,57.3,128,128,128s128-57.3,128-128C256,57.3,198.7,0,128,0L128,0z"/>
		<path fill="#7AB60A" d="M120,176c-4.2,0-8.3-1.7-11.3-4.7l-32-32c-6.2-6.2-6.2-16.4,0-22.6s16.4-6.2,22.6,0l19,19l36.9-49.2
			c5.3-7.1,15.3-8.5,22.4-3.2c7.1,5.3,8.5,15.3,3.2,22.4l-48,64c-2.8,3.7-7,6-11.7,6.4C120.8,176,120.4,176,120,176z"/>
	</g>
</g>
<g id="error">
	<path fill="#B7351D" d="M128,544c52.9,0,96,43.1,96,96s-43.1,96-96,96s-96-43.1-96-96S75.1,544,128,544 M128,512
		C57.3,512,0,569.3,0,640c0,70.7,57.3,128,128,128s128-57.3,128-128C256,569.3,198.7,512,128,512L128,512z"/>
	<path fill="#B7351D" d="M173.3,662.6L150.6,640l22.6-22.6c6.2-6.2,6.2-16.4,0-22.6c-6.2-6.2-16.4-6.2-22.6,0L128,617.4l-22.6-22.6
		c-6.2-6.2-16.4-6.2-22.6,0s-6.2,16.4,0,22.6l22.6,22.6l-22.6,22.6c-6.2,6.2-6.2,16.4,0,22.6c6.2,6.2,16.4,6.2,22.6,0l22.6-22.6
		l22.6,22.6c6.2,6.2,16.4,6.2,22.6,0C179.5,679,179.5,668.9,173.3,662.6z"/>
</g>
<g id="warning">
	<g>
		<path fill="#FF9A00" d="M112,352v48c0,8.8,7.2,16,16,16s16-7.2,16-16v-48c0-8.8-7.2-16-16-16S112,343.2,112,352z"/>
		<circle fill="#FF9A00" cx="128" cy="448" r="16"/>
		<path fill="#FF9A00" d="M252.6,465.7l-96-192c-5.4-10.8-16.5-17.7-28.6-17.7s-23.2,6.8-28.6,17.7l-96,192
			c-5,9.9-4.4,21.7,1.4,31.1C10.6,506.3,20.9,512,32,512h192c11.1,0,21.4-5.7,27.2-15.2C257.1,487.4,257.6,475.6,252.6,465.7z
			 M32,480l96-192l96,192H32z"/>
	</g>
</g>
</svg>
