<?xml version="1.0" encoding="utf-8"?>
<!-- Generator: Adobe Illustrator 13.0.0, SVG Export Plug-In . SVG Version: 6.00 Build 14948)  -->
<!DOCTYPE svg PUBLIC "-//W3C//DTD SVG 1.1//EN" "http://www.w3.org/Graphics/SVG/1.1/DTD/svg11.dtd">
<svg version="1.1" id="Layer_1" xmlns="http://www.w3.org/2000/svg" xmlns:xlink="http://www.w3.org/1999/xlink" x="0px" y="0px"
	 width="1000px" height="1000px" viewBox="0 0 1000 1000" enable-background="new 0 0 1000 1000" xml:space="preserve">
<g>
	<g>
		<rect x="45.56" y="44.774" width="10.391" height="1.512"/>
	</g>
	<g>
		<rect x="45.56" y="48.552" width="10.391" height="1.511"/>
	</g>
	<g>
		<rect x="45.56" y="52.331" width="6.702" height="1.511"/>
	</g>
	<g>
		<path d="M40.288,64.465c-0.177,0-0.352-0.063-0.491-0.182c-0.202-0.173-0.298-0.438-0.254-0.7
			c0.448-2.663,0.516-5.392,0.144-5.837c-2.055-2.431-3.187-5.524-3.187-8.712c0-7.444,6.056-13.5,13.5-13.5s13.5,6.056,13.5,13.5
			c0,7.443-6.056,13.5-13.5,13.5c-0.46,0-0.925-0.024-1.382-0.07c-0.055-0.006-0.115-0.008-0.18-0.008
			c-1.656,0-6.271,1.421-7.91,1.969C40.45,64.452,40.369,64.465,40.288,64.465z M50,37.047c-6.611,0-11.989,5.378-11.989,11.989
			c0,2.831,1.005,5.577,2.83,7.735c0.841,0.994,0.637,3.872,0.376,5.847c2.029-0.636,6.075-1.804,7.554-1.655
			c0.407,0.041,0.82,0.062,1.229,0.062c6.611,0,11.989-5.378,11.989-11.988C61.989,42.425,56.611,37.047,50,37.047z"/>
	</g>
</g>
<g>
	<path d="M138.594,53h22.726c0.694,0,1.258-0.32,1.256-1.053l-0.628-9.951c0-0.694-0.564-0.996-1.258-0.996H142v-0.995
		c0-1.918,1.826-3.005,3.744-3.005H149v-0.245c0,0.752,0.261,1.245,1.013,1.245h3.998c0.752,0,0.989-0.493,0.989-1.245v-1.392
		c0-0.752-0.237-1.362-0.989-1.362h-3.998c-0.72,0-1.305,1-1.354,1h-2.915c-2.611,0-4.744,2.394-4.744,5.005V41h-1.777
		c-0.694,0-1.258,0.424-1.256,1.079l-0.63,9.977C137.336,52.749,137.9,53,138.594,53z M139.223,41.978l21.47,0.038l0.628,10.213
		l-22.729,0.038L139.223,41.978z"/>
	<path d="M162.674,56h-25.349c-0.347,0-0.629,0.152-0.629,0.5c0,0.347,0.282,0.5,0.629,0.5H149v8h-3.752
		c-0.347,0-0.629,0.152-0.629,0.5c0,0.347,0.282,0.5,0.629,0.5h8.641c0.347,0,0.629-0.153,0.629-0.5c0-0.348-0.282-0.5-0.629-0.5
		H150v-8h12.674c0.347,0,0.629-0.153,0.629-0.5C163.303,56.153,163.021,56,162.674,56z"/>
</g>
<g>
	<g>
		<g>
			<path d="M239.335,63.054h-4.376c-1.124,0-2.039-0.915-2.039-2.039V39.078c0-1.124,0.915-2.039,2.039-2.039h4.376V63.054z
				 M234.959,38.398c-0.375,0-0.68,0.306-0.68,0.681v21.937c0,0.375,0.305,0.68,0.68,0.68h3.016V38.398H234.959z"/>
		</g>
		<g>
			<path d="M265.041,63.054h-14.777c-0.118,0-0.232-0.013-0.344-0.033l-3.741-0.65l4.236-0.769V37.039h14.626
				c1.124,0,2.039,0.915,2.039,2.039v21.937C267.08,62.139,266.165,63.054,265.041,63.054z M251.772,61.695h13.269
				c0.375,0,0.68-0.305,0.68-0.68V39.078c0-0.375-0.305-0.681-0.68-0.681h-13.266v23.204
				C251.775,61.633,251.774,61.664,251.772,61.695z"/>
		</g>
	</g>
	<g>
		<rect x="254.337" y="41.746" width="9.344" height="1.358"/>
	</g>
	<g>
		<rect x="254.337" y="45.823" width="9.344" height="1.359"/>
	</g>
	<g>
		<rect x="254.337" y="49.902" width="6.027" height="1.359"/>
	</g>
	<g>
		<path d="M239.397,65h-0.062c-0.75,0-1.359-0.61-1.359-1.359V36.359c0-0.75,0.61-1.358,1.359-1.358l0.123,0.011l11.03,2.029
			c0.716,0.037,1.287,0.632,1.287,1.356v23.204c0,0.726-0.571,1.32-1.287,1.357L239.397,65z M239.335,36.37v27.26l11.081-2.028
			V38.398l-0.123-0.011L239.335,36.37z"/>
	</g>
</g>
<g>
	<g>
		<rect x="43.34" y="142.16" width="15.587" height="2.267"/>
	</g>
	<g>
		<rect x="43.34" y="147.829" width="15.587" height="2.267"/>
	</g>
	<g>
		<rect x="43.34" y="153.497" width="10.054" height="2.267"/>
	</g>
	<g>
		<path d="M35.432,171.697c-0.266,0-0.529-0.094-0.737-0.271c-0.303-0.258-0.447-0.657-0.381-1.049
			c0.673-3.995,0.773-8.086,0.216-8.756c-3.083-3.646-4.78-8.286-4.78-13.068c0-11.166,9.084-20.25,20.25-20.25
			s20.25,9.084,20.25,20.25s-9.084,20.25-20.25,20.25c-0.69,0-1.387-0.035-2.073-0.105c-0.082-0.009-0.173-0.012-0.271-0.012
			c-2.484,0-9.407,2.132-11.865,2.953C35.674,171.678,35.553,171.697,35.432,171.697z M50,130.57
			c-9.916,0-17.983,8.067-17.983,17.983c0,4.246,1.507,8.367,4.244,11.604c1.261,1.491,0.956,5.809,0.563,8.769
			c3.043-0.953,9.113-2.704,11.331-2.483c0.61,0.062,1.23,0.094,1.844,0.094c9.916,0,17.983-8.067,17.983-17.983
			C67.983,138.637,59.916,130.57,50,130.57z"/>
	</g>
</g>
<g>
	<path d="M132.891,155h34.09c1.04,0,1.886-0.731,1.884-1.829l-0.941-15.303c0-1.04-0.846-1.869-1.886-1.869H138v-0.992
		c0-2.876,2.74-5.008,5.616-5.008H148v0.132c0,1.128,0.892,1.868,2.02,1.868h5.997c1.128,0,1.983-0.74,1.983-1.868v-2.087
		c0-1.128-0.855-2.045-1.983-2.045h-5.997c-1.08,0-1.958,1-2.031,2h-4.373c-3.917,0-6.616,3.091-6.616,7.008V136h-3.166
		c-1.04,0-1.886,0.886-1.884,1.869l-0.945,15.34C131.005,154.249,131.851,155,132.891,155z M133.834,137.967l32.205,0.058
		l0.943,15.32l-34.093,0.058L133.834,137.967z"/>
	<path d="M169.011,158h-38.023c-0.521,0-0.943,0.479-0.943,1c0,0.521,0.422,1,0.943,1H148v12h-5.128c-0.521,0-0.943,0.479-0.943,1
		c0,0.521,0.422,1,0.943,1h12.962c0.521,0,0.943-0.479,0.943-1c0-0.521-0.422-1-0.943-1H150v-12h19.011c0.521,0,0.943-0.479,0.943-1
		C169.954,158.479,169.532,158,169.011,158z"/>
</g>
<g>
	<g>
		<g>
			<path d="M234.002,169.581h-6.563c-1.686,0-3.058-1.372-3.058-3.059v-32.905c0-1.687,1.372-3.059,3.058-3.059h6.563V169.581z
				 M227.439,132.597c-0.562,0-1.019,0.457-1.019,1.019v32.906c0,0.562,0.457,1.02,1.019,1.02h4.525v-34.945L227.439,132.597
				L227.439,132.597z"/>
		</g>
		<g>
			<path d="M272.561,169.581h-22.165c-0.177,0-0.348-0.021-0.516-0.05l-5.611-0.977l6.354-1.151v-36.845h21.938
				c1.686,0,3.058,1.372,3.058,3.059v32.905C275.62,168.209,274.248,169.581,272.561,169.581z M252.657,167.542h19.904
				c0.562,0,1.019-0.457,1.019-1.02v-32.905c0-0.562-0.457-1.02-1.019-1.02h-19.9v34.806
				C252.662,167.45,252.66,167.496,252.657,167.542z"/>
		</g>
	</g>
	<g>
		<rect x="256.506" y="137.62" width="14.017" height="2.039"/>
	</g>
	<g>
		<rect x="256.506" y="143.736" width="14.017" height="2.039"/>
	</g>
	<g>
		<rect x="256.506" y="149.852" width="9.04" height="2.039"/>
	</g>
	<g>
		<path d="M234.095,172.5h-0.093c-1.124,0-2.039-0.914-2.039-2.039v-40.922c0-1.124,0.914-2.039,2.039-2.039l0.185,0.017
			l16.545,3.044c1.074,0.057,1.93,0.948,1.93,2.036v34.806c0,1.088-0.856,1.98-1.93,2.036L234.095,172.5z M234.002,129.556v40.889
			l16.621-3.041v-34.806l-0.185-0.017L234.002,129.556z"/>
	</g>
</g>
<g id="layer1" transform="translate(-163.82485,-265.4736)">
	<g id="g4983">
		<g id="path3620">
			<path d="M518.007,437.375c-7.299-2.239-12.931-7.836-15.86-15.76c-3.286-8.887-2.417-19,2.267-26.393l1.348,0.854
				c-4.425,6.981-5.236,16.556-2.119,24.986c2.753,7.446,8.021,12.698,14.832,14.787L518.007,437.375z"/>
		</g>
		<g id="path3935">
			<path d="M527.656,432.68l-1.543-0.402c2.208-8.468,0.299-18.677-4.863-26.009c-2.872-4.079-8.021-9.095-16.232-9.825l0.141-1.588
				c6.882,0.612,13.061,4.339,17.396,10.495C527.974,413.05,529.977,423.777,527.656,432.68z"/>
		</g>
		<g id="path4227">
			
				<rect x="492.236" y="414.612" transform="matrix(-0.4158 -0.9095 0.9095 -0.4158 349.8137 1055.5305)" width="43.388" height="1.595"/>
		</g>
		<g id="path4229">
			<path d="M502.113,407.08c-2.459,0-4.835-0.571-6.982-1.705l0.745-1.41c3.416,1.806,7.508,2.009,11.521,0.572
				c4.881-1.748,9.114-5.703,11.048-10.322l1.471,0.616c-2.102,5.019-6.692,9.312-11.98,11.207
				C505.991,406.733,504.027,407.08,502.113,407.08z"/>
		</g>
		<g id="path4231">
			<path d="M501.23,416.303c-2.841,0-5.679-0.415-8.412-1.291l0.487-1.518c12.866,4.128,28.255-2.558,33.602-14.598l1.457,0.647
				C523.839,409.732,512.532,416.303,501.23,416.303z"/>
		</g>
		<g id="path4233">
			<path d="M502.95,426.545c-2.855,0-5.686-0.329-8.389-0.996l0.382-1.548c13.486,3.329,31.69-2.293,37.588-17.183l1.482,0.587
				c-2.812,7.097-8.622,12.832-16.362,16.152C513.045,425.532,507.958,426.545,502.95,426.545z"/>
		</g>
		<g id="path4750">
			<path d="M513.835,437.974c-11.972,0-21.788-9.915-21.939-22.229c-0.074-6.007,2.134-11.682,6.219-15.98
				c4.09-4.305,9.571-6.717,15.433-6.789c0.089-0.001,0.178-0.002,0.266-0.002c11.838,0,21.654,9.802,21.938,21.975l-1.594,0.037
				c-0.264-11.31-9.368-20.418-20.345-20.418c-0.082,0-0.163,0.001-0.245,0.002c-5.428,0.067-10.505,2.303-14.297,6.293
				c-3.797,3.997-5.851,9.275-5.781,14.863c0.143,11.527,9.368,20.786,20.594,20.653c11.213-0.14,20.221-9.629,20.078-21.155
				l1.594-0.02c0.153,12.404-9.56,22.619-21.651,22.769C514.013,437.973,513.924,437.974,513.835,437.974z"/>
		</g>
		<g id="path4235">
			<path d="M509.276,434.74c-3.017,0-6.048-0.482-8.963-1.509l0.529-1.504c6.111,2.152,13.278,1.784,19.661-1.007
				c6.471-2.83,11.469-7.906,13.714-13.927l1.493,0.557C531.78,427.894,520.629,434.74,509.276,434.74z"/>
		</g>
	</g>
</g>
<g>
	<g>
		<rect x="41.12" y="239.547" width="20.783" height="3.022"/>
	</g>
	<g>
		<rect x="41.12" y="247.105" width="20.783" height="3.023"/>
	</g>
	<g>
		<rect x="41.12" y="254.662" width="13.405" height="3.022"/>
	</g>
	<g>
		<path d="M30.577,278.93c-0.355,0-0.705-0.125-0.982-0.363c-0.404-0.345-0.596-0.876-0.509-1.398
			c0.897-5.326,1.031-10.781,0.288-11.674C25.264,260.633,23,254.445,23,248.07c0-14.888,12.113-27,27-27s27,12.112,27,27
			s-12.113,27-27,27c-0.92,0-1.849-0.047-2.764-0.139c-0.109-0.012-0.23-0.016-0.361-0.016c-3.312,0-12.542,2.842-15.82,3.937
			C30.899,278.904,30.737,278.93,30.577,278.93z M50,224.093c-13.221,0-23.977,10.756-23.977,23.977
			c0,5.661,2.01,11.156,5.659,15.473c1.681,1.987,1.275,7.744,0.751,11.69c4.058-1.271,12.15-3.604,15.108-3.31
			c0.813,0.082,1.641,0.124,2.458,0.124c13.221,0,23.977-10.756,23.977-23.978C73.976,234.849,63.221,224.093,50,224.093z"/>
	</g>
</g>
<g>
	<path d="M127.188,257h45.453c1.387,0,2.515-1.142,2.513-2.605l-1.255-20.654c0-1.387-1.128-2.741-2.515-2.741H135v-0.989
		c0-3.835,2.653-7.011,6.488-7.011H147v0.51c0,1.504,1.523,2.49,3.027,2.49h7.996c1.504,0,2.977-0.987,2.977-2.49v-2.783
		c0-1.504-1.473-2.727-2.977-2.727h-7.996c-1.44,0-2.61,1-2.708,3h-5.831c-5.222,0-9.488,3.789-9.488,9.011V231h-3.554
		c-1.387,0-2.515,1.348-2.513,2.659l-1.26,20.702C124.673,255.749,125.801,257,127.188,257z M128.446,233.955l42.94,0.076
		l1.257,20.428l-45.457,0.077L128.446,233.955z"/>
	<path d="M175.349,261h-50.698c-0.694,0-1.258,0.806-1.258,1.5c0,0.693,0.563,1.5,1.258,1.5H148v15h-7.504
		c-0.694,0-1.258,0.806-1.258,1.5s0.563,1.5,1.258,1.5h17.282c0.694,0,1.258-0.807,1.258-1.5c0-0.694-0.563-1.5-1.258-1.5H150v-15
		h25.349c0.694,0,1.258-0.807,1.258-1.5C176.607,261.806,176.043,261,175.349,261z"/>
</g>
<g>
	<g>
		<g>
			<path d="M228.669,276.108h-8.751c-2.248,0-4.078-1.829-4.078-4.078v-43.875c0-2.249,1.829-4.077,4.078-4.077h8.751V276.108z
				 M219.918,226.796c-0.749,0-1.359,0.609-1.359,1.358v43.875c0,0.749,0.61,1.359,1.359,1.359h6.033v-46.593H219.918z"/>
		</g>
		<g>
			<path d="M280.082,276.108h-29.554c-0.236,0-0.464-0.026-0.688-0.065l-7.482-1.304l8.472-1.534v-49.127h29.251
				c2.249,0,4.078,1.828,4.078,4.077v43.875C284.16,274.279,282.33,276.108,280.082,276.108z M253.543,273.389h26.539
				c0.749,0,1.359-0.61,1.359-1.359v-43.875c0-0.749-0.61-1.358-1.359-1.358h-26.533v46.408
				C253.549,273.266,253.547,273.328,253.543,273.389z"/>
		</g>
	</g>
	<g>
		<rect x="258.675" y="233.493" width="18.689" height="2.718"/>
	</g>
	<g>
		<rect x="258.675" y="241.648" width="18.689" height="2.718"/>
	</g>
	<g>
		<rect x="258.675" y="249.803" width="12.053" height="2.718"/>
	</g>
	<g>
		<path d="M228.793,280h-0.124c-1.499,0-2.718-1.22-2.718-2.719v-54.562c0-1.499,1.219-2.718,2.718-2.718l0.246,0.022l22.06,4.06
			c1.432,0.075,2.574,1.264,2.574,2.714v46.408c0,1.449-1.142,2.639-2.574,2.714L228.793,280z M228.669,222.74v54.519l22.162-4.055
			v-46.408l-0.246-0.023L228.669,222.74z"/>
	</g>
</g>
<g id="layer1_1_" transform="translate(-163.82485,-265.4736)">
	<g id="g4983_1_">
		<g id="path3620_1_">
			<path d="M519.4,544.675c-9.73-2.985-17.241-10.447-21.147-21.012c-4.381-11.85-3.223-25.333,3.023-35.19l1.796,1.138
				c-5.898,9.31-6.98,22.075-2.825,33.315c3.671,9.928,10.694,16.931,19.776,19.717L519.4,544.675z"/>
		</g>
		<g id="path3935_1_">
			<path d="M532.266,538.415l-2.058-0.536c2.945-11.291,0.399-24.903-6.483-34.679c-3.83-5.438-10.694-12.127-21.645-13.1
				l0.188-2.118c9.177,0.816,17.414,5.785,23.193,13.994C532.691,512.242,535.361,526.544,532.266,538.415z"/>
		</g>
		<g id="path4227_1_">
			
				<rect x="485.033" y="514.319" transform="matrix(-0.4158 -0.9095 0.9095 -0.4158 258.9312 1197.0964)" width="57.852" height="2.126"/>
		</g>
		<g id="path4229_1_">
			<path d="M498.209,504.281c-3.277,0-6.446-0.761-9.309-2.273l0.994-1.88c4.555,2.408,10.01,2.679,15.358,0.763
				c6.508-2.331,12.152-7.604,14.731-13.763l1.961,0.821c-2.803,6.69-8.924,12.417-15.975,14.942
				C503.38,503.82,500.761,504.281,498.209,504.281z"/>
		</g>
		<g id="path4231_1_">
			<path d="M497.032,516.579c-3.788,0-7.572-0.554-11.216-1.723l0.648-2.023c17.155,5.504,37.674-3.409,44.804-19.463l1.942,0.862
				C527.177,507.818,512.101,516.579,497.032,516.579z"/>
		</g>
		<g id="path4233_1_">
			<path d="M499.325,530.235c-3.809,0-7.582-0.438-11.185-1.328l0.509-2.063c17.981,4.438,42.253-3.058,50.117-22.91l1.976,0.783
				c-3.748,9.462-11.495,17.109-21.814,21.536C512.785,528.886,506.003,530.235,499.325,530.235z"/>
		</g>
		<g id="path4750_1_">
			<path d="M513.838,545.474c-15.962,0-29.051-13.22-29.254-29.639c-0.099-8.007,2.847-15.575,8.292-21.308
				c5.453-5.74,12.763-8.955,20.577-9.052c0.118-0.001,0.236-0.002,0.354-0.002c15.785,0,28.872,13.069,29.251,29.3l-2.125,0.05
				c-0.353-15.079-12.49-27.224-27.126-27.224c-0.11,0-0.217,0.001-0.327,0.002c-7.237,0.089-14.007,3.069-19.062,8.391
				c-5.062,5.328-7.8,12.366-7.708,19.816c0.19,15.369,12.491,27.715,27.459,27.537c14.951-0.185,26.96-12.838,26.771-28.207
				l2.126-0.026c0.204,16.541-12.747,30.16-28.87,30.359C514.076,545.473,513.957,545.474,513.838,545.474z"/>
		</g>
		<g id="path4235_1_">
			<path d="M507.759,541.162c-4.023,0-8.064-0.646-11.95-2.013l0.706-2.005c8.149,2.869,17.705,2.379,26.216-1.343
				c8.626-3.773,15.291-10.541,18.284-18.57l1.992,0.743C537.765,532.034,522.898,541.162,507.759,541.162z"/>
		</g>
	</g>
</g>
<g>
	<g>
		<rect x="39.41" y="337.535" width="24.784" height="3.604"/>
	</g>
	<g>
		<rect x="39.41" y="346.547" width="24.784" height="3.604"/>
	</g>
	<g>
		<rect x="39.41" y="355.56" width="15.986" height="3.605"/>
	</g>
	<g>
		<path d="M26.837,384.5c-0.423,0-0.841-0.15-1.171-0.434c-0.481-0.411-0.711-1.045-0.606-1.669
			c1.069-6.352,1.23-12.856,0.343-13.922c-4.901-5.796-7.601-13.175-7.601-20.778c0-17.755,14.445-32.197,32.198-32.197
			s32.198,14.443,32.198,32.197c0,17.755-14.445,32.198-32.198,32.198c-1.097,0-2.206-0.056-3.296-0.166
			c-0.13-0.014-0.275-0.019-0.43-0.019c-3.949,0-14.957,3.389-18.865,4.694C27.221,384.469,27.029,384.5,26.837,384.5z M50,319.105
			c-15.767,0-28.593,12.827-28.593,28.595c0,6.751,2.397,13.304,6.749,18.45c2.005,2.37,1.52,9.235,0.896,13.942
			c4.839-1.516,14.489-4.299,18.017-3.947c0.97,0.099,1.957,0.148,2.932,0.148c15.767,0,28.593-12.827,28.593-28.593
			C78.593,331.932,65.767,319.105,50,319.105z"/>
	</g>
</g>
<g>
	<path d="M122.911,358h53.975c1.647,0,2.987-1.199,2.984-2.938l-1.49-24.167c0-1.646-1.339-2.896-2.987-2.896H132v-1.737
		c0-4.554,3.338-8.263,7.892-8.263H147v0.543c0,1.786,1.246,3.457,3.032,3.457h9.496c1.786,0,3.472-1.672,3.472-3.457v-3.306
		c0-1.785-1.686-3.237-3.472-3.237h-9.496c-1.71,0-3.099,1-3.216,3h-6.924c-6.201,0-10.892,5.062-10.892,11.263V328h-4.596
		c-1.647,0-2.987,1.319-2.984,2.876l-1.496,24.288C119.924,356.811,121.264,358,122.911,358z M124.404,330.947l50.991,0.092
		l1.493,24.257l-53.98,0.091L124.404,330.947z"/>
	<path d="M180.102,363h-60.204c-0.825,0-1.493,0.675-1.493,1.5s0.669,1.5,1.493,1.5H147v19h-8.286c-0.825,0-1.493,0.675-1.493,1.5
		s0.669,1.5,1.493,1.5h20.523c0.825,0,1.493-0.675,1.493-1.5s-0.669-1.5-1.493-1.5H150v-19h30.102c0.825,0,1.493-0.675,1.493-1.5
		S180.926,363,180.102,363z"/>
</g>
<g>
	<g>
		<g>
			<path d="M224.67,381.003h-10.392c-2.67,0-4.842-2.172-4.842-4.842V324.06c0-2.67,2.172-4.842,4.842-4.842h10.392V381.003z
				 M214.278,322.445c-0.89,0-1.614,0.725-1.614,1.614v52.102c0,0.89,0.724,1.613,1.614,1.613h7.164v-55.33L214.278,322.445
				L214.278,322.445z"/>
		</g>
		<g>
			<path d="M285.722,381.003h-35.095c-0.28,0-0.551-0.032-0.817-0.078l-8.884-1.547l10.061-1.823v-58.338h34.736
				c2.67,0,4.842,2.172,4.842,4.842v52.102C290.564,378.831,288.392,381.003,285.722,381.003z M254.208,377.775h31.515
				c0.89,0,1.614-0.724,1.614-1.613V324.06c0-0.89-0.724-1.614-1.614-1.614h-31.508v55.11
				C254.215,377.629,254.212,377.702,254.208,377.775z"/>
		</g>
	</g>
	<g>
		<rect x="260.301" y="330.398" width="22.193" height="3.229"/>
	</g>
	<g>
		<rect x="260.301" y="340.082" width="22.193" height="3.228"/>
	</g>
	<g>
		<rect x="260.301" y="349.766" width="14.314" height="3.229"/>
	</g>
	<g>
		<path d="M224.817,385.625h-0.147c-1.78,0-3.228-1.448-3.228-3.229v-64.794c0-1.78,1.448-3.228,3.228-3.228l0.292,0.026
			l26.197,4.82c1.701,0.089,3.056,1.501,3.056,3.223v55.11c0,1.722-1.356,3.134-3.056,3.223L224.817,385.625z M224.67,317.63v64.74
			l26.317-4.815v-55.11l-0.292-0.026L224.67,317.63z"/>
	</g>
</g>
<g id="layer1_3_" transform="translate(-163.82485,-265.4736)">
	<g id="g4983_3_">
		<g id="path3620_3_">
			<path d="M520.446,650.151c-11.555-3.545-20.473-12.405-25.112-24.95c-5.203-14.071-3.826-30.083,3.59-41.789l2.134,1.351
				c-7.005,11.055-8.29,26.214-3.354,39.562c4.359,11.789,12.699,20.104,23.484,23.412L520.446,650.151z"/>
		</g>
		<g id="path3935_3_">
			<path d="M535.723,642.717l-2.443-0.637c3.497-13.408,0.474-29.573-7.7-41.182c-4.548-6.459-12.698-14.399-25.702-15.556
				l0.225-2.516c10.896,0.97,20.679,6.87,27.542,16.617C536.228,611.635,539.399,628.62,535.723,642.717z"/>
		</g>
		<g id="path4227_3_">
			
				<rect x="479.631" y="614.101" transform="matrix(-0.4158 -0.9095 0.9095 -0.4158 168.0326 1338.6661)" width="68.698" height="2.524"/>
		</g>
		<g id="path4229_3_">
			<path d="M495.281,602.183c-3.893,0-7.656-0.904-11.054-2.7l1.18-2.231c5.409,2.858,11.887,3.181,18.239,0.905
				c7.728-2.768,14.43-9.029,17.493-16.343l2.329,0.976c-3.328,7.945-10.598,14.744-18.972,17.744
				C501.421,601.635,498.312,602.183,495.281,602.183z"/>
		</g>
		<g id="path4231_3_">
			<path d="M493.883,616.786c-4.498,0-8.992-0.657-13.319-2.045l0.771-2.404c20.372,6.536,44.736-4.048,53.203-23.112l2.308,1.025
				C529.681,606.382,511.778,616.786,493.883,616.786z"/>
		</g>
		<g id="path4233_3_">
			<path d="M496.607,633.003c-4.523,0-9.003-0.521-13.282-1.577l0.605-2.451c21.352,5.271,50.175-3.631,59.514-27.206l2.347,0.929
				c-4.451,11.236-13.65,20.318-25.905,25.574C512.591,631.401,504.536,633.003,496.607,633.003z"/>
		</g>
		<g id="path4750_3_">
			<path d="M513.841,651.099c-18.955,0-34.498-15.699-34.739-35.196c-0.118-9.509,3.38-18.494,9.847-25.302
				c6.477-6.816,15.154-10.635,24.436-10.749c0.14-0.002,0.279-0.003,0.42-0.003c18.744,0,34.284,15.521,34.734,34.794l-2.523,0.06
				c-0.418-17.907-14.832-32.328-32.212-32.328c-0.13,0-0.259,0.001-0.389,0.002c-8.594,0.105-16.633,3.645-22.636,9.963
				c-6.012,6.328-9.262,14.685-9.153,23.533c0.226,18.25,14.833,32.912,32.607,32.7c17.754-0.22,32.015-15.245,31.789-33.496
				l2.523-0.031c0.242,19.642-15.137,35.814-34.282,36.052C514.124,651.098,513.982,651.099,513.841,651.099z"/>
		</g>
		<g id="path4235_3_">
			<path d="M506.622,645.979c-4.776,0-9.577-0.765-14.19-2.39l0.838-2.381c9.678,3.406,21.024,2.825,31.131-1.596
				c10.244-4.479,18.157-12.518,21.712-22.051l2.365,0.882C542.253,635.139,524.599,645.979,506.622,645.979z"/>
		</g>
	</g>
</g>
<g>
	<g>
		<rect x="37.79" y="435.628" width="28.576" height="4.156"/>
	</g>
	<g>
		<rect x="37.79" y="446.019" width="28.576" height="4.157"/>
	</g>
	<g>
		<rect x="37.79" y="456.409" width="18.432" height="4.157"/>
	</g>
	<g>
		<path d="M23.293,489.779c-0.488,0-0.969-0.172-1.351-0.499c-0.555-0.474-0.82-1.205-0.699-1.924
			c1.233-7.324,1.418-14.824,0.396-16.052c-5.651-6.684-8.764-15.191-8.764-23.957c0-20.472,16.655-37.125,37.125-37.125
			s37.125,16.653,37.125,37.125c0,20.47-16.655,37.125-37.125,37.125c-1.264,0-2.543-0.065-3.8-0.192
			c-0.15-0.016-0.317-0.021-0.496-0.021c-4.553,0-17.245,3.907-21.752,5.414C23.736,489.742,23.514,489.779,23.293,489.779z
			 M50,414.378c-18.179,0-32.968,14.79-32.968,32.968c0,7.784,2.763,15.34,7.781,21.273c2.312,2.733,1.753,10.648,1.033,16.075
			c5.579-1.747,16.706-4.957,20.774-4.551c1.118,0.113,2.256,0.17,3.38,0.17c18.179,0,32.968-14.79,32.968-32.968
			C82.968,429.166,68.179,414.378,50,414.378z"/>
	</g>
</g>
<g>
	<path d="M118.634,460h62.497c1.907,0,3.458-1.757,3.455-3.77l-1.726-28.43c0-1.907-1.551-3.801-3.458-3.801H129v-1.485
		c0-5.273,4.023-9.515,9.297-9.515H146v0.575c0,2.068,1.969,3.425,4.037,3.425h10.995c2.068,0,3.968-1.357,3.968-3.425v-3.825
		c0-2.068-1.9-3.749-3.968-3.749h-10.995c-1.98,0-3.589,2-3.724,3h-8.017c-7.181,0-13.297,6.334-13.297,13.515V424h-4.637
		c-1.907,0-3.458,1.79-3.455,3.593l-1.732,28.623C115.176,458.123,116.727,460,118.634,460z M120.363,427.939l59.043,0.106
		l1.728,28.087l-62.503,0.105L120.363,427.939z"/>
	<path d="M184.855,465h-69.709c-0.955,0-1.729,1.045-1.729,2c0,0.954,0.774,2,1.729,2H147v22h-10.068
		c-0.955,0-1.729,0.545-1.729,1.5c0,0.954,0.774,1.5,1.729,1.5h23.763c0.955,0,1.729-0.546,1.729-1.5c0-0.955-0.774-1.5-1.729-1.5
		H151v-22h33.855c0.955,0,1.729-1.046,1.729-2C186.584,466.045,185.81,465,184.855,465z"/>
</g>
<g>
	<g>
		<g>
			<path d="M220.67,485.898h-12.033c-3.092,0-5.607-2.515-5.607-5.606v-60.328c0-3.093,2.515-5.607,5.607-5.607h12.033V485.898z
				 M208.637,418.094c-1.03,0-1.869,0.839-1.869,1.869v60.327c0,1.03,0.839,1.869,1.869,1.869h8.295v-64.065H208.637
				L208.637,418.094z"/>
		</g>
		<g>
			<path d="M291.363,485.898h-40.636c-0.324,0-0.638-0.036-0.946-0.09l-10.287-1.791l11.649-2.111v-67.549h40.22
				c3.092,0,5.607,2.515,5.607,5.607v60.328C296.969,483.383,294.454,485.898,291.363,485.898z M254.872,482.159h36.491
				c1.03,0,1.869-0.839,1.869-1.868v-60.328c0-1.03-0.839-1.869-1.869-1.869H254.88v63.811
				C254.88,481.99,254.878,482.075,254.872,482.159z"/>
		</g>
	</g>
	<g>
		<rect x="261.928" y="427.303" width="25.697" height="3.738"/>
	</g>
	<g>
		<rect x="261.928" y="438.516" width="25.697" height="3.738"/>
	</g>
	<g>
		<rect x="261.928" y="449.729" width="16.574" height="3.738"/>
	</g>
	<g>
		<path d="M220.841,491.25h-0.171c-2.061,0-3.738-1.677-3.738-3.738v-75.024c0-2.061,1.676-3.738,3.738-3.738l0.339,0.031
			l30.333,5.581c1.969,0.104,3.539,1.738,3.539,3.732v63.811c0,1.994-1.57,3.629-3.539,3.732L220.841,491.25z M220.67,412.519
			v74.962l30.472-5.576v-63.811l-0.339-0.031L220.67,412.519z"/>
	</g>
</g>
<g id="layer1_2_" transform="translate(-163.82485,-265.4736)">
	<g id="g4983_2_">
		<g id="path3620_2_">
			<path d="M521.491,755.626c-13.379-4.105-23.706-14.365-29.077-28.892c-6.023-16.292-4.431-34.833,4.157-48.387l2.469,1.563
				c-8.11,12.801-9.599,30.354-3.884,45.81c5.047,13.65,14.704,23.278,27.192,27.109L521.491,755.626z"/>
		</g>
		<g id="path3935_2_">
			<path d="M539.181,747.019l-2.829-0.737c4.049-15.525,0.549-34.242-8.916-47.683c-5.267-7.479-14.704-16.674-29.76-18.012
				l0.259-2.912c12.618,1.122,23.943,7.955,31.891,19.24C539.765,711.029,543.437,730.696,539.181,747.019z"/>
		</g>
		<g id="path4227_2_">
			
				<rect x="474.227" y="713.882" transform="matrix(-0.4158 -0.9095 0.9095 -0.4158 77.1345 1480.2362)" width="79.547" height="2.924"/>
		</g>
		<g id="path4229_2_">
			<path d="M492.353,700.085c-4.508,0-8.864-1.048-12.799-3.127l1.365-2.584c6.264,3.311,13.764,3.684,21.119,1.049
				c8.948-3.205,16.709-10.456,20.255-18.924l2.697,1.129c-3.854,9.2-12.27,17.072-21.966,20.546
				C499.463,699.449,495.862,700.085,492.353,700.085z"/>
		</g>
		<g id="path4231_2_">
			<path d="M490.734,716.993c-5.208,0-10.412-0.76-15.422-2.366l0.893-2.783c23.588,7.567,51.801-4.688,61.604-26.761l2.672,1.187
				C532.185,704.947,511.455,716.993,490.734,716.993z"/>
		</g>
		<g id="path4233_2_">
			<path d="M493.888,735.771c-5.237,0-10.426-0.604-15.379-1.826l0.699-2.837c24.724,6.104,58.099-4.204,68.911-31.501l2.718,1.076
				c-5.152,13.01-15.806,23.526-29.995,29.611C512.396,733.915,503.069,735.771,493.888,735.771z"/>
		</g>
		<g id="path4750_2_">
			<path d="M513.843,756.724c-21.948,0-39.945-18.178-40.225-40.753c-0.136-11.01,3.913-21.415,11.402-29.297
				c7.498-7.894,17.547-12.314,28.294-12.446c0.162-0.002,0.324-0.003,0.486-0.003c21.704,0,39.698,17.97,40.22,40.288l-2.922,0.068
				c-0.484-20.734-17.174-37.433-37.298-37.433c-0.151,0-0.298,0.001-0.45,0.003c-9.952,0.123-19.26,4.22-26.211,11.536
				c-6.961,7.327-10.726,17.004-10.599,27.248c0.262,21.132,17.176,38.109,37.757,37.864c20.557-0.254,37.068-17.653,36.809-38.785
				l2.923-0.036c0.281,22.743-17.526,41.47-39.696,41.744C514.172,756.723,514.007,756.724,513.843,756.724z"/>
		</g>
		<g id="path4235_2_">
			<path d="M505.485,750.796c-5.532,0-11.089-0.887-16.432-2.768l0.971-2.758c11.206,3.945,24.344,3.271,36.047-1.846
				c11.861-5.188,21.024-14.494,25.14-25.533l2.738,1.021C546.742,738.243,526.3,750.796,505.485,750.796z"/>
		</g>
	</g>
</g>
<path d="M496.083,87.34l-24.384-24.384c6.9-5.955,11.283-14.755,11.283-24.564c0-17.892-14.559-32.449-32.449-32.449
	c-17.892,0-32.449,14.559-32.449,32.449c0,17.892,14.558,32.449,32.449,32.449c4.698,0,9.162-1.012,13.198-2.817l25.834,25.834
	L496.083,87.34z M427.304,38.393c0-12.809,10.42-23.229,23.229-23.229c12.809,0,23.229,10.42,23.229,23.229
	c0,12.81-10.42,23.229-23.229,23.229C437.724,61.622,427.304,51.202,427.304,38.393z"/>
<g>
	<path d="M261.124,593.476c-0.001-0.718-0.585-1.302-1.303-1.302l-9.146,0.009v15.751l9.161-0.008c0.348,0,0.675-0.137,0.92-0.383
		c0.246-0.245,0.381-0.572,0.381-0.921L261.124,593.476z"/>
	<g>
		<path d="M242.101,590.382c-0.24,0-0.434,0.205-0.434,0.457l0.017,18.323c0,0.252,0.195,0.456,0.435,0.456l7.078-1.376
			c0.24,0,0.434-0.205,0.434-0.457l-0.015-15.585c0-0.252-0.195-0.456-0.435-0.456L242.101,590.382z"/>
	</g>
	<path d="M240.583,592.19l-2.144,0.002c-0.718,0.001-1.302,0.586-1.301,1.304l0.013,13.146c0.001,0.717,0.585,1.301,1.302,1.301
		h0.001l2.144-0.002L240.583,592.19z"/>
</g>
<g>
	<path d="M140.787,603h18.358c0.56,0,1.016-0.611,1.015-1.202l-0.507-8.517c0-0.56-0.456-1.281-1.016-1.281H144v-0.2
		c0-1.55,1.014-2.8,2.563-2.8H149v0.174c0,0.606,0.404,0.826,1.011,0.826h3.23c0.607,0,0.759-0.22,0.759-0.826v-1.124
		c0-0.607-0.152-1.05-0.759-1.05h-3.23c-0.581,0-1.045,0-1.086,1h-2.363c-2.109,0-3.563,1.689-3.563,3.8v0.2h-1.705
		c-0.56,0-1.016,0.644-1.015,1.173l-0.509,8.561C139.771,602.295,140.227,603,140.787,603z"/>
	<path d="M160.238,604h-20.476c-0.421,0-0.762,0.578-0.762,1c0,0.421,0.341,1,0.762,1H149v6h-2.838c-0.421,0-0.762,0.078-0.762,0.5
		c0,0.421,0.341,0.5,0.762,0.5h6.98c0.421,0,0.762-0.079,0.762-0.5c0-0.422-0.341-0.5-0.762-0.5H150v-6h10.238
		c0.421,0,0.762-0.579,0.762-1C161,604.578,160.659,604,160.238,604z"/>
</g>
<path d="M50,590c-5.247,0-9.5,4.253-9.5,9.5c0,2.336,0.843,4.476,2.242,6.13c0.691,0.816-0.909,4.263,0.018,4.808
	c1.148,0.676,4.875-1.63,6.266-1.488C49.347,608.983,49.671,609,50,609c5.247,0,9.5-4.254,9.5-9.5C59.5,594.253,55.247,590,50,590z
	 M53.134,603.098h-6.95v-1.585h6.95V603.098z M54.963,599.93h-8.779v-1.585h8.779V599.93z M54.963,596.82h-8.779v-1.585h8.779
	V596.82z"/>
<g>
	<path d="M264.121,641.844c-0.001-0.897-0.731-1.627-1.629-1.627l-11.432,0.011v19.688l11.451-0.01
		c0.435-0.001,0.844-0.17,1.151-0.478c0.307-0.309,0.476-0.716,0.476-1.152L264.121,641.844z"/>
	<g>
		<path d="M240.342,637.977c-0.3,0-0.542,0.256-0.542,0.571l0.021,22.903c0,0.315,0.244,0.57,0.543,0.57l8.847-1.72
			c0.3,0,0.542-0.256,0.542-0.571l-0.018-19.48c0-0.315-0.244-0.57-0.543-0.57L240.342,637.977z"/>
	</g>
	<path d="M238.445,640.237l-2.681,0.003c-0.898,0.001-1.628,0.732-1.627,1.63l0.016,16.434c0.001,0.896,0.731,1.626,1.628,1.626
		h0.002l2.68-0.002L238.445,640.237z"/>
</g>
<g>
	<path d="M137.855,654h24.199c0.738,0,1.339-0.828,1.338-1.607l-0.668-10.965c0-0.739-0.601-1.428-1.339-1.428H142v-0.811
		c0-2.042,1.427-4.189,3.469-4.189H149v0.729c0,0.801,0.214,1.271,1.015,1.271h4.257c0.801,0,1.728-0.471,1.728-1.271v-1.482
		c0-0.801-0.927-1.248-1.728-1.248h-4.257c-0.767,0-1.39,0-1.442,1h-3.104c-2.78,0-5.469,2.41-5.469,5.19V640h-1.475
		c-0.738,0-1.339,0.575-1.338,1.273l-0.671,11.172C136.516,653.184,137.117,654,137.855,654z"/>
	<path d="M163.496,655h-26.991c-0.555,0-1.004,0.444-1.004,1c0,0.555,0.45,1,1.004,1H149v8h-4.06c-0.555,0-1.004,0.444-1.004,1
		c0,0.555,0.45,1,1.004,1h9.201c0.555,0,1.004-0.445,1.004-1c0-0.556-0.45-1-1.004-1H151v-8h12.496c0.555,0,1.004-0.445,1.004-1
		C164.5,655.445,164.051,655,163.496,655z"/>
</g>
<path d="M50,637.294c-6.627,0-12,5.372-12,12c0,2.95,1.065,5.653,2.833,7.743c0.872,1.032-1.148,5.385,0.023,6.074
	c1.45,0.854,6.158-2.059,7.915-1.88c0.404,0.041,0.814,0.062,1.23,0.062c6.627,0,12-5.373,12-12
	C62.001,642.666,56.627,637.294,50,637.294z M53.959,653.84H45.18v-2.002h8.779V653.84z M56.269,649.837H45.18v-2.003h11.089
	V649.837z M56.269,645.909H45.18v-2.002h11.089V645.909z"/>
<path d="M50,740c-5.523,0-10,4.477-10,10c0,5.522,4.477,10,10,10s10-4.478,10-10C60,744.477,55.523,740,50,740z M54.067,748.193
	c0.004,0.084,0.006,0.17,0.006,0.255c0,2.603-1.981,5.604-5.604,5.604c-1.111,0-2.148-0.325-3.019-0.885
	c0.155,0.019,0.312,0.026,0.47,0.026c0.923,0,1.772-0.313,2.447-0.844c-0.861-0.017-1.589-0.585-1.84-1.366
	c0.12,0.023,0.244,0.036,0.37,0.036c0.181,0,0.354-0.024,0.519-0.069c-0.9-0.181-1.58-0.977-1.58-1.931c0-0.009,0-0.017,0.001-0.024
	c0.266,0.147,0.569,0.235,0.891,0.246c-0.527-0.353-0.875-0.955-0.875-1.64c0-0.361,0.097-0.7,0.266-0.99
	c0.97,1.193,2.423,1.978,4.059,2.058c-0.033-0.144-0.051-0.293-0.051-0.448c0-1.088,0.882-1.97,1.97-1.97
	c0.567,0,1.078,0.238,1.437,0.621c0.449-0.088,0.871-0.251,1.251-0.477c-0.148,0.459-0.459,0.845-0.866,1.089
	c0.399-0.048,0.778-0.153,1.131-0.311C54.786,747.567,54.451,747.913,54.067,748.193L54.067,748.193z"/>
<path d="M150.103,760h-9.104c-1.648,0-2.999-1.123-2.999-2.5v-15c0-1.375,1.351-2.5,3-2.5h18.001h0.001c1.651,0,3,1.127,2.998,2.5
	v15.003c0,1.375-1.348,2.499-2.999,2.499h-4.554L150.103,760z M145.018,743c-0.978,0-1.618,0.658-1.618,1.518
	c0,0.839,0.619,1.518,1.578,1.518c1.018,0,1.637-0.679,1.637-1.518C146.596,743.659,145.997,743,145.018,743z M146.516,757v-9.766
	h-3.036V757H146.516z M148.333,750.35V757h3.036v-5.633c0-0.279,0.02-0.559,0.1-0.759c0.22-0.559,0.718-1.139,1.557-1.139
	c1.098,0,1.538,0.858,1.538,2.117V757h3.036v-5.771c0-2.876-1.498-4.214-3.494-4.214c-1.638,0-2.617,0.938-3.016,1.578h-0.06
	l-0.141-1.358h-2.636C148.293,748.114,148.333,749.132,148.333,750.35L148.333,750.35z"/>
<path d="M150.134,862.996H138.3c-2.142,0-3.898-1.46-3.898-3.249v-19.499c0-1.785,1.756-3.25,3.9-3.25H161.7l0.002,0.001
	c2.146,0,3.9,1.465,3.897,3.25v19.5c0,1.787-1.752,3.249-3.898,3.249h-5.919L150.134,862.996z M143.524,840.9
	c-1.271,0-2.103,0.857-2.103,1.974c0,1.09,0.805,1.973,2.051,1.973c1.324,0,2.128-0.883,2.128-1.973
	C145.575,841.757,144.796,840.9,143.524,840.9z M145.472,859.099v-12.694h-3.946v12.694H145.472z M147.834,850.452v8.646h3.946
	v-7.321c0-0.364,0.026-0.726,0.13-0.985c0.286-0.728,0.934-1.48,2.024-1.48c1.427,0,1.999,1.117,1.999,2.752v7.035h3.946v-7.502
	c0-3.738-1.947-5.478-4.542-5.478c-2.129,0-3.402,1.22-3.92,2.052h-0.078l-0.183-1.766h-3.426
	C147.781,847.547,147.834,848.87,147.834,850.452L147.834,850.452z"/>
<path d="M257.501,740H242.5c-1.374,0-2.5,1.125-2.5,2.5v15c0,1.375,1.126,2.498,2.499,2.498h7.587v-7.171h-2.395v-3.123h2.395
	v-1.564c0-2.413,1.781-4.303,4.056-4.303h2.207v3.527h-1.976c-0.516,0-0.668,0.297-0.668,0.705v1.633h2.644v3.124h-2.644V760h3.795
	c1.376,0,2.499-1.124,2.499-2.499v-15.003C260.002,741.127,258.878,740,257.501,740L257.501,740z"/>
<path d="M338.324,744.497c0.678,0.363,10.068,5.371,10.418,5.558c0.348,0.186,0.801,0.275,1.257,0.275
	c0.457,0,0.91-0.09,1.258-0.276c0.351-0.187,9.739-5.194,10.417-5.558c0.679-0.36,1.321-1.496,0.075-1.496h-23.5
	C337.005,743,337.645,744.136,338.324,744.497z M361.963,747.257c-0.771,0.399-10.231,5.311-10.704,5.557
	c-0.472,0.246-0.801,0.277-1.258,0.277c-0.456,0-0.785-0.032-1.257-0.277s-9.937-5.159-10.704-5.557
	c-0.543-0.282-0.539,0.048-0.539,0.302s0,10.117,0,10.117c0,0.579,0.777,1.324,1.377,1.324h22.246c0.603,0,1.376-0.745,1.376-1.323
	c0,0,0-9.863,0-10.117C362.5,747.305,362.506,746.975,361.963,747.257z"/>
<path d="M50,837c-7.179,0-13,5.821-13,13c0,7.18,5.821,13,13,13s13-5.82,13-13C63,842.822,57.179,837,50,837z M55.287,847.651
	c0.006,0.109,0.008,0.221,0.008,0.332c0,3.383-2.575,7.284-7.285,7.284c-1.444,0-2.792-0.422-3.925-1.151
	c0.201,0.025,0.405,0.035,0.61,0.035c1.2,0,2.303-0.409,3.181-1.097c-1.119-0.021-2.066-0.761-2.392-1.776
	c0.156,0.029,0.317,0.046,0.481,0.046c0.235,0,0.46-0.032,0.675-0.089c-1.17-0.236-2.054-1.271-2.054-2.511
	c0-0.011,0-0.021,0.001-0.032c0.345,0.191,0.74,0.307,1.159,0.319c-0.685-0.459-1.137-1.241-1.137-2.132
	c0-0.47,0.126-0.91,0.346-1.288c1.262,1.55,3.15,2.57,5.277,2.676c-0.043-0.188-0.067-0.381-0.067-0.583
	c0-1.414,1.147-2.561,2.56-2.561c0.737,0,1.402,0.311,1.869,0.809c0.583-0.114,1.132-0.326,1.626-0.621
	c-0.192,0.597-0.597,1.099-1.126,1.416c0.519-0.062,1.011-0.199,1.47-0.404c-0.343,0.514-0.779,0.964-1.279,1.326L55.287,847.651z"
	/>
<path d="M259.751,837H240.25c-1.786,0-3.25,1.464-3.25,3.25v19.5c0,1.789,1.464,3.25,3.249,3.25h9.862v-9.322h-3.114v-4.061h3.114
	v-2.033c0-3.138,2.315-5.594,5.273-5.594h2.87v4.587h-2.569c-0.671,0-0.868,0.386-0.868,0.917v2.123h3.437v4.062h-3.437v9.323h4.933
	c1.789,0,3.249-1.461,3.249-3.249v-19.502C263.002,838.465,261.54,837.001,259.751,837L259.751,837z"/>
<path d="M334.822,842.848c0.882,0.472,13.089,6.981,13.544,7.225c0.453,0.242,1.041,0.359,1.634,0.359
	c0.594,0,1.183-0.117,1.636-0.36c0.454-0.242,12.66-6.752,13.542-7.225c0.883-0.469,1.717-1.945,0.099-1.945h-30.55
	C333.106,840.901,333.938,842.377,334.822,842.848z M365.552,846.434c-1.002,0.52-13.301,6.905-13.915,7.225
	c-0.613,0.32-1.041,0.36-1.636,0.36c-0.593,0-1.02-0.042-1.634-0.36c-0.614-0.317-12.916-6.706-13.915-7.225
	c-0.706-0.366-0.701,0.062-0.701,0.393s0,13.152,0,13.152c0,0.753,1.01,1.721,1.791,1.721h28.92c0.784,0,1.789-0.968,1.789-1.72
	c0,0,0-12.822,0-13.152C366.25,846.496,366.257,846.068,365.552,846.434z"/>
<path d="M150.165,965.994h-14.564c-2.636,0-4.798-1.797-4.798-3.998V938c0-2.198,2.162-4,4.799-4h28.796l0.002,0.002
	c2.642,0,4.799,1.801,4.796,4V962c0,2.199-2.156,3.997-4.798,3.997h-7.285L150.165,965.994z M142.031,938.801
	c-1.565,0-2.588,1.055-2.588,2.428c0,1.342,0.991,2.428,2.524,2.428c1.629,0,2.619-1.086,2.619-2.428
	C144.554,939.856,143.595,938.801,142.031,938.801z M144.427,961.197v-15.622h-4.856v15.622H144.427z M147.334,950.558v10.64h4.856
	v-9.01c0-0.448,0.032-0.894,0.16-1.214c0.352-0.896,1.149-1.821,2.491-1.821c1.756,0,2.461,1.374,2.461,3.387v8.658h4.856v-9.232
	c0-4.602-2.397-6.74-5.59-6.74c-2.62,0-4.186,1.501-4.825,2.524h-0.096l-0.225-2.173h-4.217c0.064,1.406,0.128,3.035,0.128,4.983
	L147.334,950.558L147.334,950.558z"/>
<path d="M50,934.002c-8.835,0-15.998,7.162-15.998,15.998c0,8.834,7.163,15.998,15.998,15.998S65.998,958.836,65.998,950
	C65.998,941.163,58.835,934.002,50,934.002z M56.506,947.109c0.007,0.135,0.01,0.272,0.01,0.408c0,4.164-3.169,8.964-8.966,8.964
	c-1.778,0-3.436-0.519-4.83-1.417c0.247,0.031,0.499,0.043,0.751,0.043c1.476,0,2.834-0.503,3.915-1.35
	c-1.378-0.025-2.543-0.937-2.944-2.187c0.192,0.036,0.39,0.058,0.592,0.058c0.289,0,0.567-0.039,0.83-0.11
	c-1.44-0.29-2.528-1.564-2.528-3.09c0-0.014,0-0.026,0.001-0.039c0.425,0.235,0.911,0.376,1.426,0.393
	c-0.843-0.564-1.4-1.527-1.4-2.623c0-0.577,0.156-1.118,0.426-1.585c1.553,1.908,3.876,3.164,6.494,3.293
	c-0.053-0.23-0.082-0.469-0.082-0.718c0-1.74,1.411-3.15,3.151-3.15c0.907,0,1.725,0.382,2.3,0.993
	c0.718-0.14,1.393-0.4,2.001-0.764c-0.236,0.735-0.735,1.354-1.386,1.743c0.639-0.076,1.244-0.244,1.81-0.497
	c-0.422,0.632-0.958,1.186-1.573,1.632L56.506,947.109z"/>
<path d="M262,934h-23.999c-2.198,0-4,1.801-4,4v23.998c0,2.201,1.801,3.998,3.998,3.998h12.137v-11.472h-3.832v-4.997h3.832v-2.504
	c0-3.86,2.849-6.883,6.49-6.883h3.532v5.645h-3.161c-0.826,0-1.068,0.475-1.068,1.129v2.612h4.229v4.998h-4.229V966H262
	c2.201,0,3.998-1.799,3.998-3.998v-24c0.003-2.198-1.795-4-3.997-4L262,934z"/>
<path d="M331.32,941.198c1.085,0.581,16.107,8.594,16.668,8.892c0.557,0.298,1.28,0.44,2.011,0.44s1.455-0.143,2.013-0.442
	c0.56-0.299,15.581-8.311,16.666-8.892c1.087-0.577,2.113-2.394,0.12-2.394h-37.596C329.209,938.802,330.233,940.617,331.32,941.198
	z M369.139,945.611c-1.232,0.641-16.37,8.498-17.125,8.892c-0.756,0.393-1.28,0.442-2.013,0.442c-0.73,0-1.255-0.052-2.011-0.442
	c-0.756-0.393-15.896-8.254-17.125-8.892c-0.868-0.451-0.863,0.077-0.863,0.484s0,16.186,0,16.186c0,0.927,1.243,2.118,2.204,2.118
	h35.591c0.965,0,2.202-1.192,2.202-2.117c0,0,0-15.779,0-16.186C369.998,945.688,370.007,945.16,369.139,945.611z"/>
<path d="M864.273,790.273c0-7.883-6.391-14.272-14.273-14.272s-14.273,6.39-14.273,14.272c0,0.303,0.027,0.599,0.046,0.898
	c-0.02,0.241-0.046,0.481-0.046,0.728C835.727,798.294,850,824,850,824s14.273-25.706,14.273-32.102
	c0-0.246-0.027-0.486-0.046-0.728C864.246,790.871,864.273,790.575,864.273,790.273z M850,796c-3.197,0-5.788-2.593-5.788-5.788
	c0-3.197,2.592-5.788,5.788-5.788s5.788,2.592,5.788,5.788S853.197,796,850,796z"/>
<path d="M707.294,199.503l-5.507-5.507c-0.275-0.275-0.72-0.275-0.995,0c-0.275,0.274-0.275,0.571,0,0.847l4.306,4.158h-11.894
	c-0.389,0-0.704,0.61-0.704,1c0,0.389,0.315,1,0.704,1h11.894l-4.306,4.158c-0.275,0.274-0.275,0.646,0,0.921
	c0.137,0.137,0.318,0.169,0.497,0.169c0.18,0,0.36-0.087,0.498-0.226l5.507-5.516C707.569,200.232,707.569,199.778,707.294,199.503z
	"/>
<path d="M705.349,49.64l-4.038-4.039c-0.201-0.202-0.527-0.202-0.729,0s-0.202,0.284,0,0.485L703.738,49h-8.723
	c-0.284,0-0.516,0.715-0.516,1s0.231,1,0.516,1h8.723l-3.158,2.918c-0.202,0.202-0.202,0.408,0,0.609
	c0.101,0.102,0.232,0.092,0.365,0.092c0.132,0,0.264-0.08,0.364-0.182l4.038-4.054C705.55,50.183,705.55,49.842,705.349,49.64z"/>
<path d="M704.463,95h-5.711c-0.285,0-0.516,0.218-0.516,0.503s0.058,0.336,0.343,0.336l4.293-0.176l-6.168,6.166
	c-0.202,0.201,0.141,0.869,0.342,1.07s0.87,0.543,1.072,0.343l6.168-6.169l-0.169,4.297c0,0.284,0.146,0.431,0.431,0.431
	c0.144,0,0.229-0.1,0.323-0.193c0.093-0.093,0.13-0.244,0.13-0.386l-0.011-5.709C704.989,95.228,704.748,95,704.463,95z"/>
<path d="M707.294,249.503l-5.507-5.507c-0.275-0.275-0.72-0.275-0.995,0c-0.275,0.274-0.275,0.571,0,0.847l4.306,4.158h-11.894
	c-0.389,0-0.704,0.61-0.704,1c0,0.389,0.315,1,0.704,1h11.894l-4.306,4.158c-0.275,0.274-0.275,0.646,0,0.921
	c0.137,0.137,0.318,0.169,0.497,0.169c0.18,0,0.36-0.087,0.498-0.226l5.507-5.516C707.569,250.232,707.569,249.778,707.294,249.503z
	"/>
<path d="M710.698,349.27l-8.077-8.077c-0.403-0.402-1.056-0.402-1.459,0c-0.403,0.403-0.403,1.072,0,1.476l6.314,6.332h-17.444
	c-0.57,0-1.032,0.43-1.032,1c0,0.569,0.462,1,1.032,1h17.444l-6.314,6.332c-0.403,0.402-0.403,1.063,0,1.467
	c0.202,0.202,0.466,0.306,0.729,0.306c0.265,0,0.528-0.099,0.73-0.3l8.077-8.076C711.101,350.325,711.101,349.673,710.698,349.27z"
	/>
<path d="M710.698,399.27l-8.077-8.077c-0.403-0.402-1.056-0.402-1.459,0c-0.403,0.403-0.403,1.072,0,1.476l6.314,6.332h-17.444
	c-0.57,0-1.032,0.43-1.032,1c0,0.569,0.462,1,1.032,1h17.444l-6.314,6.331c-0.403,0.403-0.403,1.064,0,1.468
	c0.202,0.202,0.466,0.306,0.729,0.306c0.265,0,0.528-0.099,0.73-0.3l8.077-8.076C711.101,400.324,711.101,399.673,710.698,399.27z"
	/>
<path d="M710.698,449.27l-8.077-8.077c-0.403-0.403-1.056-0.403-1.459,0s-0.403,1.072,0,1.476l6.314,6.332h-17.444
	c-0.57,0-1.032,0.43-1.032,1c0,0.569,0.462,1,1.032,1h17.444l-6.314,6.331c-0.403,0.403-0.403,1.064,0,1.468
	c0.202,0.202,0.466,0.306,0.729,0.306c0.265,0,0.528-0.099,0.73-0.3l8.077-8.076C711.101,450.324,711.101,449.673,710.698,449.27z"
	/>
<path d="M702.621,491.193c-0.403-0.403-1.056-0.403-1.459,0s-0.403,1.072,0,1.476l6.314,6.332h-17.444c-0.57,0-1.032,0.43-1.032,1
	c0,0.569,0.462,1,1.032,1h17.444l-6.314,6.331c-0.403,0.403-0.403,1.064,0,1.468c0.202,0.202,0.466,0.306,0.729,0.306
	c0.265,0,0.528-0.099,0.73-0.3l8.077-8.076c0.402-0.403,0.402-1.056,0-1.459L702.621,491.193z"/>
<path d="M713.129,599.108l-9.912-9.913c-0.495-0.495-1.296-0.495-1.791,0s-0.495,1.428,0,1.922l7.75,7.882h-21.409
	c-0.699,0-1.267,0.302-1.267,1c0,0.699,0.567,1,1.267,1h21.409l-7.75,7.887c-0.495,0.495-0.495,1.363,0,1.858
	c0.247,0.247,0.571,0.405,0.896,0.405s0.647-0.107,0.896-0.354l9.912-9.905C713.624,600.396,713.624,599.603,713.129,599.108z"/>
<path d="M713.129,649.108l-9.912-9.913c-0.495-0.495-1.296-0.495-1.791,0s-0.495,1.428,0,1.922l7.75,7.882h-21.409
	c-0.699,0-1.267,0.302-1.267,1c0,0.699,0.567,1,1.267,1h21.409l-7.75,7.887c-0.495,0.495-0.495,1.363,0,1.858
	c0.247,0.247,0.571,0.405,0.896,0.405s0.647-0.107,0.896-0.354l9.912-9.905C713.624,650.396,713.624,649.603,713.129,649.108z"/>
<path d="M718.478,748.74l-13.95-13.952c-0.696-0.695-1.824-0.695-2.521,0c-0.696,0.696-0.696,1.716,0,2.412l10.908,10.8h-30.132
	c-0.985,0-1.783,1.017-1.783,2c0,0.984,0.797,2,1.783,2h30.132L702.006,762.8c-0.696,0.695-0.696,1.77,0,2.466
	c0.349,0.348,0.804,0.495,1.26,0.495s0.912-0.188,1.261-0.536l13.951-13.958C719.174,750.571,719.174,749.436,718.478,748.74z"/>
<path d="M718.478,798.74l-13.95-13.952c-0.696-0.695-1.824-0.695-2.521,0c-0.696,0.696-0.696,1.716,0,2.412l10.908,10.8h-30.132
	c-0.985,0-1.783,1.017-1.783,2c0,0.984,0.797,2,1.783,2h30.132L702.006,812.8c-0.696,0.695-0.696,1.77,0,2.466
	c0.349,0.348,0.804,0.495,1.26,0.495s0.912-0.188,1.261-0.536l13.951-13.958C719.174,800.571,719.174,799.436,718.478,798.74z"/>
<polygon points="853,49.812 853,45 847,45 847,49.87 844.816,49.891 849.937,55 855.178,49.79 "/>
<polygon points="858,99.49 858,86 842,86 842,99.653 835.686,99.714 849.924,114.018 864.347,99.43 "/>
<g>
	<polygon points="445,182 409,182 409,138 445,118 	"/>
	<polygon points="493,182 457,182 457,138 493,118 	"/>
</g>
<rect y="0" fill="none" width="1000" height="1000"/>
</svg>
